<svg width="20" height="20" viewBox="0 0 20 20" fill="none" xmlns="http://www.w3.org/2000/svg">
<path fill-rule="evenodd" clip-rule="evenodd" d="M8.50033 3.52795V8.17157C8.50033 8.90092 8.2106 9.60039 7.69487 10.1161L6.47846 11.3325C7.68638 11.2911 8.89549 11.5003 10.0278 11.9532L10.5299 12.1541C11.8564 12.6847 13.3101 12.8115 14.7084 12.5187L12.3058 10.1161C11.7901 9.60039 11.5003 8.90092 11.5003 8.17157V3.52795C11.0027 3.50937 10.5026 3.5 10.0003 3.5C9.49805 3.5 8.99799 3.50937 8.50033 3.52795ZM13.0003 3.61218C13.0638 3.61695 13.1272 3.62186 13.1906 3.62693C13.6035 3.65992 13.965 3.35194 13.9979 2.93905C14.0309 2.52615 13.723 2.16468 13.3101 2.13169C12.9717 2.10466 12.6322 2.08173 12.2916 2.06296C11.5331 2.02117 10.7691 2 10.0003 2C9.23152 2 8.46758 2.02117 7.70906 2.06296C7.36846 2.08173 7.02895 2.10466 6.69059 2.13169C6.27769 2.16468 5.96972 2.52615 6.00271 2.93905C6.0357 3.35194 6.39716 3.65992 6.81006 3.62693C6.87344 3.62186 6.93686 3.61695 7.00033 3.61218V8.17157C7.00033 8.50309 6.86863 8.82104 6.63421 9.05546L2.60067 13.089C1.10418 14.5855 1.78367 17.2391 4.0037 17.5645C5.96144 17.8515 7.96376 18 10.0003 18C12.0369 18 14.0392 17.8515 15.997 17.5645C18.217 17.2391 18.8965 14.5855 17.4 13.089L13.3664 9.05546C13.132 8.82104 13.0003 8.50309 13.0003 8.17157V3.61218Z" fill="#0F172A"/>
</svg>
