<svg width="20" height="20" viewBox="0 0 20 20" fill="none" xmlns="http://www.w3.org/2000/svg">
<path fill-rule="evenodd" clip-rule="evenodd" d="M2.10557 6.4472C1.428 6.78598 1 7.47851 1 8.23605V16C1 17.1046 1.89543 18 3 18H17C18.1046 18 19 17.1046 19 16V8.23605C19 7.47851 18.572 6.78598 17.8944 6.4472L10.8944 2.9472C10.3314 2.66567 9.66863 2.66567 9.10557 2.9472L2.10557 6.4472ZM3.58541 10.4542C3.21493 10.2689 2.76442 10.4191 2.57918 10.7896C2.39394 11.1601 2.54411 11.6106 2.91459 11.7958L8.77016 14.7236C9.54436 15.1107 10.4556 15.1107 11.2298 14.7236L17.0823 11.7974C17.4528 11.6121 17.6029 11.1616 17.4177 10.7911C17.2325 10.4207 16.7819 10.2705 16.4115 10.4557L10.559 13.382C10.2071 13.5579 9.79289 13.5579 9.44098 13.382L3.58541 10.4542Z" fill="#0F172A"/>
</svg>
