<svg width="20" height="20" viewBox="0 0 20 20" fill="none" xmlns="http://www.w3.org/2000/svg">
<path fill-rule="evenodd" clip-rule="evenodd" d="M8.4845 3.49499C9.15808 2.32833 10.842 2.32833 11.5156 3.495L17.7943 14.37C18.4678 15.5367 17.6259 16.995 16.2787 16.995H3.72136C2.37421 16.995 1.53224 15.5367 2.20582 14.37L8.4845 3.49499ZM10 6C10.4142 6 10.75 6.33579 10.75 6.75V10.25C10.75 10.6642 10.4142 11 10 11C9.58579 11 9.25 10.6642 9.25 10.25L9.25 6.75C9.25 6.33579 9.58579 6 10 6ZM10 15C10.5523 15 11 14.5523 11 14C11 13.4477 10.5523 13 10 13C9.44772 13 9 13.4477 9 14C9 14.5523 9.44772 15 10 15Z" fill="#0F172A"/>
</svg>
