<svg width="20" height="20" viewBox="0 0 20 20" fill="none" xmlns="http://www.w3.org/2000/svg">
<path fill-rule="evenodd" clip-rule="evenodd" d="M3.28082 2.21967C2.98793 1.92678 2.51305 1.92678 2.22016 2.21967C1.92726 2.51256 1.92726 2.98744 2.22016 3.28033L16.7202 17.7803C17.0131 18.0732 17.4879 18.0732 17.7808 17.7803C18.0737 17.4874 18.0737 17.0126 17.7808 16.7197L16.0356 14.9745C17.5069 13.8594 18.66 12.3465 19.3348 10.5959C19.4819 10.2144 19.4821 9.79127 19.3352 9.40962C17.8925 5.66051 14.2565 3 9.99908 3C8.28256 3 6.66706 3.43249 5.25559 4.19444L3.28082 2.21967ZM7.75242 6.69128L8.84416 7.78301C9.19 7.60223 9.5834 7.5 10.0007 7.5C11.3814 7.5 12.5007 8.61929 12.5007 10C12.5007 10.4173 12.3984 10.8107 12.2177 11.1565L13.3096 12.2484C13.7459 11.6077 14.0009 10.8336 14.0009 10C14.0009 7.79086 12.21 6 10.0009 6C9.16724 6 8.39317 6.25501 7.75242 6.69128Z" fill="#0F172A"/>
<path d="M10.7489 13.9302L13.2716 16.4529C12.2467 16.8074 11.1463 17 10.0009 17C5.74346 17 2.10746 14.3395 0.664743 10.5904C0.51788 10.2087 0.518007 9.78563 0.665098 9.40408C1.15652 8.12932 1.90157 6.98057 2.8384 6.01969L6.07068 9.25198C6.02484 9.4943 6.00086 9.74435 6.00086 10C6.00086 12.2091 7.79172 14 10.0009 14C10.2565 14 10.5066 13.976 10.7489 13.9302Z" fill="#0F172A"/>
</svg>
