<svg width="20" height="20" viewBox="0 0 20 20" fill="none" xmlns="http://www.w3.org/2000/svg">
<path fill-rule="evenodd" clip-rule="evenodd" d="M9.99938 2.5C8.68987 2.5 7.4729 2.88645 6.45356 3.55132C6.10662 3.77761 5.64193 3.6798 5.41564 3.33287C5.18935 2.98593 5.28716 2.52123 5.63409 2.29494C6.88976 1.47594 8.39013 1 9.99938 1C14.4177 1 17.9994 4.58172 17.9994 9C17.9994 11.573 17.5672 14.0467 16.7708 16.3514C16.6355 16.7429 16.2085 16.9506 15.817 16.8153C15.4255 16.6801 15.2178 16.253 15.3531 15.8615C16.0957 13.7123 16.4994 11.4041 16.4994 9C16.4994 5.41015 13.5892 2.5 9.99938 2.5ZM4.33224 4.41627C4.67918 4.64256 4.77698 5.10725 4.55069 5.45419C3.88583 6.47353 3.49938 7.69049 3.49938 9C3.49938 10.6078 3.02428 12.107 2.2066 13.362C1.98048 13.709 1.51584 13.807 1.16879 13.5809C0.82174 13.3548 0.723705 12.8902 0.949823 12.5431C1.61361 11.5243 1.99938 10.3084 1.99938 9C1.99938 7.39075 2.47531 5.89038 3.29432 4.63472C3.52061 4.28778 3.9853 4.18998 4.33224 4.41627ZM9.99938 6.12C8.34252 6.12 6.99938 7.46314 6.99938 9.12C6.99938 9.13378 6.999 9.14748 6.99827 9.16108C6.9604 11.9169 5.95235 14.4401 4.30102 16.4018C4.03428 16.7187 3.56115 16.7593 3.24426 16.4926C2.92737 16.2258 2.88672 15.7527 3.15347 15.4358C4.61781 13.6962 5.49938 11.452 5.49938 9C5.49938 8.97218 5.50089 8.94471 5.50384 8.91767C5.60966 6.52628 7.5819 4.62 9.99938 4.62C12.4168 4.62 14.3889 6.52613 14.4949 8.91754C14.4979 8.94516 14.4994 8.97323 14.4994 9.00166L14.4992 9.0815L14.4994 9.11633C14.4994 9.12755 14.4992 9.13872 14.4988 9.14983C14.498 9.24922 14.4965 9.34844 14.4942 9.44749C14.4846 9.86159 14.1412 10.1895 13.7271 10.1799C13.313 10.1704 12.985 9.8269 12.9946 9.4128C12.9971 9.30372 12.9987 9.19439 12.9992 9.08481C12.9804 7.44426 11.6445 6.12 9.99938 6.12ZM9.99938 8.25C10.4136 8.25 10.7494 8.58579 10.7494 9C10.7494 12.5103 9.56242 15.7455 7.56839 18.3232C7.31495 18.6509 6.8439 18.711 6.51627 18.4576C6.18864 18.2041 6.12851 17.7331 6.38195 17.4054C8.17987 15.0812 9.24938 12.1666 9.24938 9C9.24938 8.58579 9.58516 8.25 9.99938 8.25ZM13.5282 11.9478C13.934 12.0309 14.1956 12.4273 14.1124 12.8331C13.6836 14.9261 12.9106 16.8937 11.8556 18.6738C11.6444 19.0302 11.1843 19.1478 10.828 18.9366C10.4717 18.7254 10.354 18.2654 10.5652 17.9091C11.5368 16.2697 12.2482 14.4585 12.6429 12.532C12.7261 12.1262 13.1224 11.8646 13.5282 11.9478Z" fill="#0F172A"/>
</svg>
