<svg width="20" height="20" viewBox="0 0 20 20" fill="none" xmlns="http://www.w3.org/2000/svg">
<path fill-rule="evenodd" clip-rule="evenodd" d="M13.4992 4.93766C16.8473 6.87065 17.9944 11.1518 16.0614 14.4998C14.1284 17.8479 9.84726 18.995 6.49922 17.062C3.15117 15.129 2.00404 10.8479 3.93704 7.49983C4.10544 7.20816 4.29165 6.93319 4.49352 6.67551C4.69513 6.41815 5.08414 6.45707 5.28665 6.71371C5.56438 7.06569 5.8807 7.3858 6.22922 7.66767C6.56186 7.9367 7.01598 7.61946 7.00255 7.19186C7.00055 7.12815 6.99954 7.06419 6.99954 7C6.99954 6.08146 7.20594 5.21113 7.5749 4.43285C8.10805 3.30825 8.98062 2.37586 10.0603 1.76801C10.3073 1.62896 10.6108 1.75223 10.7373 2.00587C11.3292 3.19273 12.2646 4.22483 13.4992 4.93766ZM13.9995 12C13.9995 14.2092 12.2087 16 9.99953 16C8.08625 16 6.47861 14.6016 6.08968 12.8184C5.99611 12.3894 6.52918 12.1749 6.90347 12.4045C7.3895 12.7026 7.93682 12.8965 8.50489 12.9685C8.80752 13.0069 9.03561 12.729 9.01433 12.4247C9.00452 12.2844 8.99953 12.1428 8.99953 12C8.99953 10.5731 9.49763 9.26257 10.3294 8.23273C10.4332 8.1042 10.5985 8.04111 10.7607 8.07236C12.6058 8.42783 13.9995 10.0512 13.9995 12Z" fill="#0F172A"/>
</svg>
