<svg width="20" height="20" viewBox="0 0 20 20" fill="none" xmlns="http://www.w3.org/2000/svg">
<path d="M4.74902 3C3.78253 3 2.99902 3.7835 2.99902 4.75V7.50159C3.03345 7.50053 3.06805 7.5 3.1028 7.5H16.8949C16.9298 7.5 16.9645 7.50054 16.999 7.50161V6.75C16.999 5.7835 16.2155 5 15.249 5H11.4132C11.3469 5 11.2833 4.97366 11.2365 4.92678L9.82225 3.51256C9.49406 3.18437 9.04894 3 8.58481 3H4.74902Z" fill="#0F172A"/>
<path d="M3.10275 9C1.92535 9 1.08388 10.1393 1.43014 11.2647L2.81476 15.7647C3.04069 16.4989 3.71911 17 4.48737 17H15.5102C16.2785 17 16.9569 16.4989 17.1828 15.7647L18.5674 11.2647C18.9137 10.1393 18.0722 9 16.8948 9H3.10275Z" fill="#0F172A"/>
</svg>
