<svg width="20" height="20" viewBox="0 0 20 20" fill="none" xmlns="http://www.w3.org/2000/svg">
<path d="M18.9043 11.75C18.9043 12.4404 18.3447 13 17.6543 13C16.9639 13 16.4043 12.4404 16.4043 11.75L16.4043 4.25C16.4043 3.55964 16.9639 3 17.6543 3C18.3447 3 18.9043 3.55964 18.9043 4.25L18.9043 11.75Z" fill="#0F172A"/>
<path d="M8.9043 16L8.9043 17.2998C8.9043 17.5676 8.76456 17.8259 8.50935 17.9068C8.31848 17.9674 8.1152 18 7.9043 18C6.79973 18 5.9043 17.1046 5.9043 16C5.9043 15.005 6.08596 14.0524 6.41793 13.1735C6.62204 12.6332 6.25189 12 5.67426 12L3.1543 12C1.91166 12 0.893208 10.9904 1.00809 9.75311C1.20118 7.67339 1.65964 5.67064 2.34926 3.77906C2.75086 2.67752 3.832 2 5.00446 2L8.19609 2C8.66183 2 9.12117 2.10843 9.53773 2.31672L12.2709 3.68328C12.6874 3.89156 13.1468 4 13.6125 4L14.9043 4L14.9043 11L13.9411 11C13.2567 11 12.6833 11.4825 12.3289 12.0681C11.8404 12.8752 11.0747 13.4958 10.1637 13.7977C9.7309 13.9412 9.31008 14.184 9.15181 14.6116C8.99174 15.0441 8.9043 15.5119 8.9043 16Z" fill="#0F172A"/>
</svg>
