<svg width="20" height="20" viewBox="0 0 20 20" fill="none" xmlns="http://www.w3.org/2000/svg">
<path fill-rule="evenodd" clip-rule="evenodd" d="M9.49208 2.85248C9.54868 2.44215 9.26192 2.06363 8.85159 2.00703C8.44126 1.95044 8.06275 2.23719 8.00615 2.64752L7.54374 6H4.19733C3.78312 6 3.44733 6.33579 3.44733 6.75C3.44733 7.16421 3.78312 7.5 4.19733 7.5H7.33684L6.64719 12.5H3.30078C2.88657 12.5 2.55078 12.8358 2.55078 13.25C2.55078 13.6642 2.88657 14 3.30078 14H6.44029L6.00615 17.1475C5.94955 17.5578 6.23631 17.9364 6.64664 17.993C7.05696 18.0496 7.43548 17.7628 7.49208 17.3525L7.95449 14H10.9403L10.5061 17.1475C10.4496 17.5578 10.7363 17.9364 11.1466 17.993C11.557 18.0496 11.9355 17.7628 11.9921 17.3525L12.4545 14H15.8008C16.215 14 16.5508 13.6642 16.5508 13.25C16.5508 12.8358 16.215 12.5 15.8008 12.5H12.6614L13.351 7.5H16.6973C17.1115 7.5 17.4473 7.16421 17.4473 6.75C17.4473 6.33579 17.1115 6 16.6973 6H13.5579L13.9921 2.85248C14.0487 2.44215 13.7619 2.06363 13.3516 2.00703C12.9413 1.95044 12.5627 2.23719 12.5061 2.64752L12.0437 6H9.05794L9.49208 2.85248ZM8.85104 7.5L8.16139 12.5H11.1472L11.8368 7.5H8.85104Z" fill="#0F172A"/>
</svg>
