<svg width="20" height="20" viewBox="0 0 20 20" fill="none" xmlns="http://www.w3.org/2000/svg">
<path fill-rule="evenodd" clip-rule="evenodd" d="M5.43306 13.9168L6.69485 10.7623C6.89603 10.2593 7.19728 9.80249 7.58033 9.41945L14.4995 2.50071C15.3279 1.67229 16.6711 1.67229 17.4995 2.50072C18.3279 3.32914 18.3279 4.67229 17.4995 5.50072L10.5803 12.4194C10.1973 12.8025 9.74042 13.1037 9.23746 13.3049L6.08299 14.5667C5.67484 14.73 5.2698 14.3249 5.43306 13.9168ZM2.5 5.75C2.5 5.05964 3.05964 4.5 3.75 4.5H10C10.4142 4.5 10.75 4.16421 10.75 3.75C10.75 3.33579 10.4142 3 10 3H3.75C2.23122 3 1 4.23122 1 5.75V16.25C1 17.7688 2.23122 19 3.75 19H14.25C15.7688 19 17 17.7688 17 16.25V10C17 9.58579 16.6642 9.25 16.25 9.25C15.8358 9.25 15.5 9.58579 15.5 10V16.25C15.5 16.9404 14.9404 17.5 14.25 17.5H3.75C3.05964 17.5 2.5 16.9404 2.5 16.25V5.75Z" fill="#0F172A"/>
</svg>
