<svg width="20" height="20" viewBox="0 0 20 20" fill="none" xmlns="http://www.w3.org/2000/svg">
<path fill-rule="evenodd" clip-rule="evenodd" d="M1.4695 3.74997C0.502997 5.424 1.07656 7.56456 2.75058 8.53106C4.20166 9.36884 6.00329 9.04946 7.08693 7.85921L7.97023 8.36919C7.99505 8.46181 8.11672 8.48608 8.17916 8.41331C8.3304 8.23707 8.49798 8.07489 8.67987 7.92911C8.96618 7.69963 8.97973 7.21997 8.66197 7.03651L7.83692 6.56017C8.32588 5.0266 7.70166 3.30666 6.25058 2.46889C4.57656 1.50239 2.43599 2.07595 1.4695 3.74997ZM3.50058 7.23203C2.544 6.67974 2.21625 5.45656 2.76853 4.49997C3.32082 3.54339 4.544 3.21564 5.50058 3.76792C6.45717 4.32021 6.78492 5.54339 6.23264 6.49997C5.68035 7.45656 4.45717 7.78431 3.50058 7.23203Z" fill="#0F172A"/>
<path fill-rule="evenodd" clip-rule="evenodd" d="M9.95629 8.32167C9.17441 8.65155 8.58862 9.32394 8.36898 10.1436L7.9705 11.6308L7.08701 12.1409C6.00338 10.9506 4.2017 10.6311 2.75058 11.4689C1.07656 12.4354 0.502997 14.576 1.4695 16.25C2.43599 17.924 4.57656 18.4976 6.25058 17.5311C7.70162 16.6933 8.32584 14.9735 7.83696 13.4399L18.5158 7.27449C18.7785 7.12282 18.924 6.82783 18.8844 6.52708C18.8448 6.22633 18.6279 5.97904 18.3349 5.90053L17.6317 5.71211C17.041 5.55383 16.4144 5.59696 15.851 5.83468L9.95629 8.32167ZM2.76853 15.5C2.21625 14.5434 2.544 13.3203 3.50058 12.768C4.45717 12.2157 5.68035 12.5434 6.23264 13.5C6.78492 14.4566 6.45717 15.6798 5.50058 16.2321C4.544 16.7844 3.32082 16.4566 2.76853 15.5Z" fill="#0F172A"/>
<path d="M12.5209 11.8902C12.1632 12.0967 12.1959 12.6233 12.5765 12.7839L15.8507 14.1653C16.4142 14.403 17.0408 14.4461 17.6315 14.2879L18.3347 14.0994C18.6277 14.0209 18.8445 13.7736 18.8841 13.4729C18.9237 13.1721 18.7783 12.8772 18.5155 12.7255L15.0448 10.7217C14.8901 10.6323 14.6995 10.6323 14.5448 10.7217L12.5209 11.8902Z" fill="#0F172A"/>
</svg>
