<svg width="20" height="20" viewBox="0 0 20 20" fill="none" xmlns="http://www.w3.org/2000/svg">
<path fill-rule="evenodd" clip-rule="evenodd" d="M5.99902 5V6H4.66606C3.75832 6 3.00128 6.69407 2.92264 7.5984L2.09655 17.0984C2.00764 18.1209 2.81365 19 3.83997 19H16.1585C17.1848 19 17.9908 18.1209 17.9019 17.0984L17.0758 7.5984C16.9972 6.69407 16.2402 6 15.3324 6H13.999V5C13.999 2.79086 12.2082 1 9.99902 1C7.78988 1 5.99902 2.79086 5.99902 5ZM9.99902 2.5C8.61831 2.5 7.49902 3.61929 7.49902 5V6H12.499V5C12.499 3.61929 11.3797 2.5 9.99902 2.5ZM7.49902 10C7.49902 11.3807 8.61831 12.5 9.99902 12.5C11.3797 12.5 12.499 11.3807 12.499 10V8.75C12.499 8.33579 12.8348 8 13.249 8C13.6632 8 13.999 8.33579 13.999 8.75V10C13.999 12.2091 12.2082 14 9.99902 14C7.78988 14 5.99902 12.2091 5.99902 10V8.75C5.99902 8.33579 6.33481 8 6.74902 8C7.16324 8 7.49902 8.33579 7.49902 8.75V10Z" fill="#0F172A"/>
</svg>
