<svg width="20" height="20" viewBox="0 0 20 20" fill="none" xmlns="http://www.w3.org/2000/svg">
<path d="M10.002 5C10.002 6.65685 8.65881 8 7.00195 8C5.3451 8 4.00195 6.65685 4.00195 5C4.00195 3.34315 5.3451 2 7.00195 2C8.65881 2 10.002 3.34315 10.002 5Z" fill="#0F172A"/>
<path d="M1.61723 16.428C1.21993 16.1736 0.9898 15.721 1.048 15.2529C1.41611 12.292 3.94139 10 7.00185 10C10.0623 10 12.5876 12.2914 12.9557 15.2522C13.0139 15.7203 12.7838 16.1729 12.3865 16.4273C10.8322 17.4225 8.98439 18 7.00185 18C5.01932 18 3.17154 17.4231 1.61723 16.428Z" fill="#0F172A"/>
<path d="M16.252 5.75C16.252 5.33579 15.9162 5 15.502 5C15.0877 5 14.752 5.33579 14.752 5.75V7.75H12.752C12.3377 7.75 12.002 8.08579 12.002 8.5C12.002 8.91421 12.3377 9.25 12.752 9.25H14.752V11.25C14.752 11.6642 15.0877 12 15.502 12C15.9162 12 16.252 11.6642 16.252 11.25V9.25H18.252C18.6662 9.25 19.002 8.91421 19.002 8.5C19.002 8.08579 18.6662 7.75 18.252 7.75H16.252V5.75Z" fill="#0F172A"/>
</svg>
