<svg width="20" height="20" viewBox="0 0 20 20" fill="none" xmlns="http://www.w3.org/2000/svg">
<path d="M7.00195 8C8.65881 8 10.002 6.65685 10.002 5C10.002 3.34315 8.65881 2 7.00195 2C5.3451 2 4.00195 3.34315 4.00195 5C4.00195 6.65685 5.3451 8 7.00195 8Z" fill="#0F172A"/>
<path d="M14.502 9C15.8827 9 17.002 7.88071 17.002 6.5C17.002 5.11929 15.8827 4 14.502 4C13.1212 4 12.002 5.11929 12.002 6.5C12.002 7.88071 13.1212 9 14.502 9Z" fill="#0F172A"/>
<path d="M1.61723 16.428C1.21993 16.1736 0.9898 15.721 1.048 15.2529C1.41611 12.292 3.94139 10 7.00185 10C10.0623 10 12.5876 12.2914 12.9557 15.2522C13.0139 15.7203 12.7838 16.1729 12.3865 16.4273C10.8322 17.4225 8.98439 18 7.00185 18C5.01932 18 3.17154 17.4231 1.61723 16.428Z" fill="#0F172A"/>
<path d="M14.502 16C14.4667 16 14.4314 15.9998 14.3962 15.9993C14.4651 15.7025 14.4842 15.3885 14.4442 15.0671C14.2688 13.6562 13.7021 12.367 12.856 11.3116C13.3665 11.1105 13.9227 11 14.5048 11C16.4445 11 18.0976 12.2273 18.7299 13.9478C18.8658 14.3176 18.7065 14.7241 18.3691 14.9275C17.2399 15.6083 15.9167 16 14.502 16Z" fill="#0F172A"/>
</svg>
