<svg width="20" height="20" viewBox="0 0 20 20" fill="none" xmlns="http://www.w3.org/2000/svg">
<path fill-rule="evenodd" clip-rule="evenodd" d="M0.676963 6.94117C3.03825 4.51116 6.34381 3 10.001 3C13.6582 3 16.9638 4.51116 19.325 6.94117C19.6108 7.23522 19.6074 7.70424 19.3175 7.99417L18.9639 8.34776C18.8219 8.48979 18.6288 8.56891 18.428 8.56741C18.2271 8.56591 18.0353 8.48391 17.8954 8.33977C15.8954 6.27907 13.0982 5 10.001 5C6.90378 5 4.10662 6.27907 2.10664 8.33977C1.96675 8.48391 1.77489 8.56591 1.57404 8.56741C1.37319 8.56891 1.18013 8.48979 1.03811 8.34776L0.684514 7.99417C0.394586 7.70424 0.391223 7.23522 0.676963 6.94117ZM3.5022 9.77378C5.13945 8.06527 7.44646 7 10.001 7C12.5556 7 14.8626 8.06527 16.4998 9.77378C16.7821 10.0684 16.7771 10.5345 16.4886 10.823L16.135 11.1767C15.9923 11.3194 15.798 11.3986 15.5962 11.3963C15.3943 11.394 15.2019 11.3104 15.0625 11.1645C13.787 9.82985 11.9915 9 10.001 9C8.01048 9 6.21504 9.82985 4.93956 11.1645C4.8001 11.3104 4.60769 11.394 4.40585 11.3963C4.204 11.3986 4.00975 11.3194 3.86701 11.1767L3.51338 10.823C3.22488 10.5345 3.21992 10.0684 3.5022 9.77378ZM6.32159 12.6144C7.23432 11.6229 8.54547 11 10.001 11C11.4565 11 12.7677 11.6229 13.6804 12.6144C13.9528 12.9103 13.9433 13.3683 13.659 13.6527L13.3051 14.0066C13.1601 14.1516 12.9621 14.2309 12.7572 14.2261C12.5522 14.2213 12.3581 14.1328 12.2201 13.9812C11.6704 13.3773 10.8803 13 10.001 13C9.12173 13 8.33164 13.3773 7.78188 13.9812C7.64387 14.1328 7.44981 14.2213 7.24486 14.2261C7.03991 14.2309 6.84192 14.1516 6.69695 14.0066L6.34306 13.6527C6.05869 13.3683 6.04922 12.9103 6.32159 12.6144ZM9.11712 15.3661C9.34251 15.1407 9.65604 15 10.001 15C10.346 15 10.6595 15.1407 10.8849 15.3661C11.1778 15.659 11.1778 16.1339 10.8849 16.4268L10.5313 16.7803C10.2384 17.0732 9.76357 17.0732 9.47068 16.7803L9.11712 16.4268C8.82423 16.1339 8.82423 15.659 9.11712 15.3661Z" fill="#0F172A"/>
</svg>
