<svg width="24" height="24" viewBox="0 0 24 24" fill="none" xmlns="http://www.w3.org/2000/svg">
<path d="M13.5 21V13.5C13.5 13.0858 13.8358 12.75 14.25 12.75H17.25C17.6642 12.75 18 13.0858 18 13.5V21M13.5 21H2.36088M13.5 21H18M18 21H21.6391M20.25 21V9.34879M3.75 21V9.34903M3.75 9.34903C4.89729 10.0122 6.38977 9.85296 7.37132 8.87142C7.41594 8.8268 7.45886 8.78112 7.50008 8.73447C8.04979 9.35723 8.85402 9.75001 9.75 9.75001C10.646 9.75001 11.4503 9.3572 12 8.73438C12.5497 9.3572 13.354 9.75001 14.25 9.75001C15.1459 9.75001 15.9501 9.35728 16.4998 8.73459C16.541 8.78117 16.5838 8.82678 16.6284 8.87133C17.61 9.85296 19.1027 10.0121 20.25 9.34879M3.75 9.34903C3.52788 9.22065 3.31871 9.06145 3.12868 8.87142C1.95711 7.69985 1.95711 5.80035 3.12868 4.62878L4.31797 3.43949C4.59927 3.15819 4.9808 3.00015 5.37863 3.00015H18.6212C19.019 3.00015 19.4005 3.15819 19.6818 3.43949L20.871 4.62869C22.0426 5.80027 22.0426 7.69976 20.871 8.87133C20.6811 9.06128 20.472 9.22043 20.25 9.34879M6.75 18H10.5C10.9142 18 11.25 17.6642 11.25 17.25V13.5C11.25 13.0858 10.9142 12.75 10.5 12.75H6.75C6.33579 12.75 6 13.0858 6 13.5V17.25C6 17.6642 6.33579 18 6.75 18Z" stroke="#0F172A" stroke-width="1.5" stroke-linecap="round" stroke-linejoin="round"/>
</svg>
