<svg width="24" height="24" viewBox="0 0 24 24" fill="none" xmlns="http://www.w3.org/2000/svg">
<path d="M10.3433 3.94002C10.4337 3.39756 10.9031 2.99997 11.453 2.99997H12.547C13.0969 2.99997 13.5663 3.39756 13.6567 3.94002L13.8056 4.83383C13.8764 5.2581 14.1893 5.59835 14.5865 5.76329C14.9839 5.92829 15.4403 5.90625 15.7904 5.65614L16.528 5.1293C16.9755 4.80966 17.5885 4.86039 17.9774 5.24926L18.751 6.02281C19.1398 6.41168 19.1906 7.02469 18.8709 7.4722L18.3439 8.21003C18.0938 8.56009 18.0718 9.0163 18.2367 9.4136C18.4016 9.81075 18.7418 10.1236 19.166 10.1943L20.0599 10.3433C20.6024 10.4337 21 10.903 21 11.453V12.547C21 13.0969 20.6024 13.5662 20.0599 13.6566L19.1661 13.8056C18.7419 13.8763 18.4016 14.1892 18.2367 14.5865C18.0717 14.9839 18.0937 15.4402 18.3438 15.7904L18.8706 16.5278C19.1902 16.9753 19.1395 17.5883 18.7506 17.9772L17.9771 18.7507C17.5882 19.1396 16.9752 19.1903 16.5277 18.8707L15.7901 18.3438C15.44 18.0938 14.9837 18.0717 14.5864 18.2367C14.1892 18.4016 13.8764 18.7418 13.8057 19.166L13.6567 20.0599C13.5663 20.6024 13.0969 21 12.547 21H11.453C10.9031 21 10.4337 20.6024 10.3433 20.0599L10.1944 19.1661C10.1236 18.7418 9.81072 18.4016 9.41349 18.2367C9.01608 18.0717 8.55975 18.0937 8.2096 18.3438L7.47198 18.8707C7.02447 19.1903 6.41146 19.1396 6.02259 18.7507L5.24904 17.9772C4.86017 17.5883 4.80944 16.9753 5.12909 16.5278L5.65612 15.7899C5.90616 15.4399 5.92821 14.9837 5.76326 14.5863C5.59837 14.1892 5.25819 13.8763 4.83402 13.8056L3.94005 13.6566C3.39759 13.5662 3 13.0969 3 12.547V11.453C3 10.903 3.39759 10.4337 3.94005 10.3433L4.83386 10.1943C5.25813 10.1236 5.59838 9.81068 5.76332 9.41344C5.92833 9.01602 5.90629 8.55967 5.65618 8.20951L5.12948 7.47213C4.80983 7.02462 4.86057 6.41161 5.24943 6.02274L6.02298 5.24919C6.41185 4.86033 7.02486 4.80959 7.47237 5.12924L8.20997 5.65609C8.56004 5.90615 9.01628 5.92819 9.4136 5.76323C9.81077 5.59834 10.1236 5.25816 10.1943 4.83397L10.3433 3.94002Z" stroke="#0F172A" stroke-width="1.5" stroke-linecap="round" stroke-linejoin="round"/>
<path d="M15.0007 12C15.0007 13.6568 13.6576 15 12.0007 15C10.3438 15 9.0007 13.6568 9.0007 12C9.0007 10.3431 10.3438 8.99999 12.0007 8.99999C13.6576 8.99999 15.0007 10.3431 15.0007 12Z" stroke="#0F172A" stroke-width="1.5" stroke-linecap="round" stroke-linejoin="round"/>
</svg>
