<svg width="24" height="24" viewBox="0 0 24 24" fill="none" xmlns="http://www.w3.org/2000/svg">
<path d="M9.59328 3.94014C9.68369 3.39768 10.153 3.00009 10.703 3.00009H13.2969C13.8469 3.00009 14.3162 3.39768 14.4066 3.94014L14.6201 5.22119C14.6825 5.59523 14.9325 5.9068 15.2642 6.09045C15.3384 6.13151 15.4117 6.17393 15.4841 6.21766C15.8092 6.41393 16.2045 6.47495 16.5601 6.34175L17.7769 5.88587C18.2919 5.69293 18.8709 5.9006 19.1459 6.37687L20.4429 8.6233C20.7179 9.09957 20.6082 9.70482 20.1836 10.0544L19.1793 10.8812C18.8868 11.122 18.7418 11.4938 18.7488 11.8726C18.7496 11.915 18.75 11.9575 18.75 12.0001C18.75 12.0427 18.7496 12.0852 18.7488 12.1275C18.7418 12.5064 18.8868 12.8782 19.1793 13.119L20.1836 13.9458C20.6082 14.2953 20.7179 14.9006 20.4429 15.3769L19.1459 17.6233C18.8709 18.0996 18.2919 18.3072 17.7769 18.1143L16.5601 17.6584C16.2045 17.5252 15.8092 17.5862 15.4842 17.7825C15.4117 17.8263 15.3384 17.8687 15.2642 17.9097C14.9325 18.0934 14.6825 18.4049 14.6201 18.779L14.4066 20.06C14.3162 20.6025 13.8469 21.0001 13.2969 21.0001H10.703C10.153 21.0001 9.68369 20.6025 9.59328 20.06L9.37978 18.779C9.31743 18.4049 9.06746 18.0934 8.73569 17.9097C8.66152 17.8687 8.5882 17.8263 8.51577 17.7825C8.19073 17.5863 7.7954 17.5252 7.43984 17.6584L6.22297 18.1143C5.70798 18.3072 5.12899 18.0996 4.85402 17.6233L3.55703 15.3769C3.28206 14.9006 3.39172 14.2954 3.8163 13.9458L4.82065 13.119C5.11316 12.8782 5.25815 12.5064 5.25114 12.1276C5.25035 12.0852 5.24996 12.0427 5.24996 12.0001C5.24996 11.9575 5.25035 11.915 5.25114 11.8726C5.25815 11.4938 5.11315 11.122 4.82065 10.8812L3.8163 10.0544C3.39171 9.70484 3.28206 9.09958 3.55703 8.62332L4.85402 6.37688C5.12899 5.90061 5.70798 5.69295 6.22297 5.88588L7.43982 6.34176C7.79539 6.47496 8.19072 6.41394 8.51575 6.21767C8.58819 6.17393 8.66151 6.13151 8.73569 6.09045C9.06746 5.9068 9.31743 5.59523 9.37977 5.22119L9.59328 3.94014Z" stroke="#0F172A" stroke-width="1.5" stroke-linecap="round" stroke-linejoin="round"/>
<path d="M14.9997 12C14.9997 13.6569 13.6566 15 11.9997 15C10.3429 15 8.99973 13.6569 8.99973 12C8.99973 10.3432 10.3429 9.00001 11.9997 9.00001C13.6566 9.00001 14.9997 10.3432 14.9997 12Z" stroke="#0F172A" stroke-width="1.5" stroke-linecap="round" stroke-linejoin="round"/>
</svg>
