<svg width="24" height="24" viewBox="0 0 24 24" fill="none" xmlns="http://www.w3.org/2000/svg">
<path d="M4.5 11.9992C4.5 16.1414 7.85786 19.4992 12 19.4992C16.1421 19.4992 19.5 16.1414 19.5 11.9992M4.5 11.9992C4.5 7.85709 7.85786 4.49922 12 4.49922C16.1421 4.49922 19.5 7.85709 19.5 11.9992M4.5 11.9992L3 11.9992M19.5 11.9992L21 11.9992M19.5 11.9992L12 11.9992M3.54256 15.0774L4.9521 14.5644M19.0475 9.43407L20.457 8.92104M5.10547 17.7849L6.25454 16.8208M17.7452 7.17894L18.8943 6.21476M7.4999 19.7942L8.2499 18.4952M15.7499 5.50481L16.4999 4.20577M10.4371 20.8632L10.6975 19.386M13.3023 4.6139L13.5627 3.13669M13.5627 20.8633L13.3023 19.3861M10.6976 4.61394L10.4371 3.13673M16.4999 19.7941L15.7499 18.495M7.49995 4.20562L12 11.9992M18.8944 17.7843L17.7454 16.8201M6.25469 7.17832L5.10562 6.21414M20.4573 15.0776L19.0477 14.5645M4.95235 9.43423L3.54281 8.9212M12 11.9992L8.25 18.4944" stroke="#0F172A" stroke-width="1.5" stroke-linecap="round" stroke-linejoin="round"/>
</svg>
