<svg width="24" height="24" viewBox="0 0 24 24" fill="none" xmlns="http://www.w3.org/2000/svg">
<path d="M7.86343 4.24259C9.04908 3.45731 10.4709 3 11.9995 3C16.1416 3 19.4995 6.35786 19.4995 10.5C19.4995 13.4194 18.9438 16.2089 17.9319 18.7685M5.74211 6.36391C4.95683 7.54956 4.49951 8.97138 4.49951 10.5C4.49951 11.9677 4.07826 13.3369 3.34961 14.4931M5.3384 18.052C7.14763 16.0555 8.24951 13.4065 8.24951 10.5C8.24951 8.42893 9.92844 6.75 11.9995 6.75C14.0706 6.75 15.7495 8.42893 15.7495 10.5C15.7495 11.0269 15.7281 11.5487 15.6855 12.0646M11.9998 10.5C11.9998 14.2226 10.6438 17.6285 8.39868 20.2506M15.0325 15.6543C14.4847 17.5743 13.6386 19.3685 12.5474 20.9836" stroke="#0F172A" stroke-width="1.5" stroke-linecap="round" stroke-linejoin="round"/>
</svg>
