<svg width="24" height="24" viewBox="0 0 24 24" fill="none" xmlns="http://www.w3.org/2000/svg">
<path d="M3.7499 9.77602C3.86194 9.7589 3.97689 9.75 4.09417 9.75H19.9056C20.0229 9.75 20.1379 9.7589 20.2499 9.77602M3.7499 9.77602C2.55389 9.9588 1.68973 11.0788 1.86679 12.3182L2.72393 18.3182C2.88228 19.4267 3.8316 20.25 4.95132 20.25H19.0485C20.1682 20.25 21.1175 19.4267 21.2759 18.3182L22.133 12.3182C22.3101 11.0788 21.4459 9.9588 20.2499 9.77602M3.7499 9.77602V6C3.7499 4.75736 4.75726 3.75 5.9999 3.75H9.87858C10.2764 3.75 10.6579 3.90804 10.9392 4.18934L13.0606 6.31066C13.3419 6.59197 13.7234 6.75 14.1212 6.75H17.9999C19.2425 6.75 20.2499 7.75736 20.2499 9V9.77602" stroke="#0F172A" stroke-width="1.5" stroke-linecap="round" stroke-linejoin="round"/>
</svg>
