<svg width="24" height="24" viewBox="0 0 24 24" fill="none" xmlns="http://www.w3.org/2000/svg">
<path d="M7.84823 8.25004L9.3848 9.13718M7.84823 8.25004C7.0198 9.68491 5.18538 10.1765 3.7505 9.34806C2.31562 8.51963 1.824 6.68486 2.65242 5.24998C3.48085 3.8151 5.31562 3.32348 6.7505 4.15191C8.18538 4.98033 8.67665 6.81516 7.84823 8.25004ZM9.3848 9.13718C10.0434 9.51739 10.4541 10.2153 10.4669 10.9756C10.4728 11.3272 10.5211 11.6706 10.6074 12.0001M9.3848 9.13718L11.4612 10.336M7.84823 15.7501L9.3848 14.863M7.84823 15.7501C8.67665 17.185 8.18538 19.0196 6.7505 19.8481C5.31562 20.6765 3.48085 20.1849 2.65242 18.75C1.824 17.3151 2.31562 15.4803 3.7505 14.6519C5.18538 13.8235 7.0198 14.3152 7.84823 15.7501ZM9.3848 14.863C10.0434 14.4828 10.4541 13.7849 10.4669 13.0246C10.4728 12.673 10.5211 12.3296 10.6074 12.0001M9.3848 14.863L11.4612 13.6642M11.4612 10.336C11.9885 9.69897 12.6994 9.21093 13.5297 8.95699L18.8545 7.32852C19.661 7.08186 20.5206 7.06681 21.3352 7.2851L22.1376 7.50011L14.3435 12.0001M11.4612 10.336C11.0623 10.8177 10.7685 11.3847 10.6074 12.0001M14.3435 12.0001L22.1376 16.5L21.3352 16.715C20.5206 16.9333 19.661 16.9183 18.8545 16.6716L13.5297 15.0432C12.6994 14.7892 11.9885 14.3012 11.4612 13.6642M14.3435 12.0001L11.4612 13.6642" stroke="#0F172A" stroke-width="1.5" stroke-linecap="round" stroke-linejoin="round"/>
</svg>
