<svg width="24" height="24" viewBox="0 0 24 24" fill="none" xmlns="http://www.w3.org/2000/svg">
<path fill-rule="evenodd" clip-rule="evenodd" d="M10.4995 3.79758V8.81802C10.4995 9.61367 10.1835 10.3767 9.62085 10.9393L7.24381 13.3164C8.99115 13.192 10.7573 13.5404 12.3349 14.3292C14.0983 15.2109 16.1391 15.442 18.0475 14.9649L18.3325 14.8937L14.3782 10.9393C13.8156 10.3767 13.4995 9.61367 13.4995 8.81802V3.79758C13.0037 3.76602 12.5035 3.75 11.9995 3.75C11.4955 3.75 10.9954 3.76602 10.4995 3.79758ZM14.9995 3.93576C15.3728 3.93623 15.6964 3.65833 15.7438 3.27849C15.795 2.86745 15.5034 2.4927 15.0923 2.44144C14.8357 2.40945 14.5779 2.38138 14.319 2.3573C13.5552 2.28628 12.7815 2.25 11.9995 2.25C11.2176 2.25 10.4439 2.28628 9.6801 2.3573C9.42114 2.38138 9.16333 2.40945 8.90672 2.44144C8.49569 2.4927 8.20404 2.86746 8.25529 3.27849C8.30266 3.65833 8.6263 3.93623 8.99953 3.93576V8.81802C8.99953 9.21584 8.84149 9.59738 8.56019 9.87868L2.26699 16.1719C0.645855 17.793 1.364 20.6474 3.7379 21.0527C6.42374 21.5112 9.18404 21.75 11.9995 21.75C14.815 21.75 17.5753 21.5112 20.2612 21.0527C22.6351 20.6474 23.3532 17.793 21.7321 16.1719L15.4389 9.87868C15.1576 9.59738 14.9995 9.21584 14.9995 8.81802V3.93576Z" fill="#0F172A"/>
</svg>
