<svg width="24" height="24" viewBox="0 0 24 24" fill="none" xmlns="http://www.w3.org/2000/svg">
<path d="M17.0032 10.4067C17.1415 10.8418 16.7875 11.2492 16.3309 11.2492H12.866C12.598 11.2492 12.3505 11.1063 12.2165 10.8742L10.4837 7.87333C10.2553 7.47774 10.4314 6.9672 10.8777 6.87006C11.2391 6.79142 11.6143 6.74999 11.9993 6.74999C14.3433 6.74999 16.3286 8.28619 17.0032 10.4067Z" fill="#0F172A"/>
<path d="M8.11865 8.46394C8.42654 8.12624 8.95694 8.22887 9.18545 8.62463L10.9174 11.6242C11.0514 11.8563 11.0514 12.1422 10.9174 12.3743L9.18504 15.3749C8.95652 15.7707 8.42606 15.8733 8.11818 15.5355C7.26779 14.6026 6.74927 13.3618 6.74927 12C6.74927 10.6379 7.26798 9.39696 8.11865 8.46394Z" fill="#0F172A"/>
<path d="M10.877 17.1298C10.4307 17.0326 10.2547 16.5221 10.4831 16.1265L12.2165 13.1242C12.3505 12.8922 12.5981 12.7492 12.866 12.7492H16.3314C16.7878 12.7492 17.1419 13.1565 17.0037 13.5915C16.3296 15.713 14.3439 17.25 11.9993 17.25C11.6141 17.25 11.2386 17.2085 10.877 17.1298Z" fill="#0F172A"/>
<path fill-rule="evenodd" clip-rule="evenodd" d="M21 12.7492C21.4142 12.7492 21.75 12.4134 21.75 11.9992C21.75 11.585 21.4142 11.2492 21 11.2492H20.2164C20.1745 10.7851 20.0943 10.332 19.9788 9.89325L20.7135 9.62582C21.1028 9.48415 21.3035 9.05377 21.1618 8.66453C21.0201 8.2753 20.5897 8.07461 20.2005 8.21628L19.4657 8.48375C19.2688 8.06632 19.0379 7.66807 18.7766 7.29257L19.3764 6.78929C19.6937 6.52304 19.7351 6.04998 19.4688 5.73267C19.2026 5.41536 18.7295 5.37398 18.4122 5.64023L17.8119 6.14393C17.4862 5.82066 17.1337 5.52437 16.758 5.25869L17.1494 4.58077C17.3565 4.22205 17.2336 3.76336 16.8749 3.55626C16.5162 3.34915 16.0575 3.47205 15.8504 3.83077L15.4597 4.5075C15.0457 4.31603 14.6133 4.15785 14.1657 4.03641L14.3013 3.26693C14.3733 2.85901 14.1009 2.47001 13.693 2.39809C13.2851 2.32616 12.8961 2.59853 12.8241 3.00646L12.6882 3.77752C12.4613 3.75878 12.2317 3.74923 12 3.74923C11.7682 3.74923 11.5387 3.7588 11.3116 3.77757L11.1757 3.0065C11.1038 2.59858 10.7148 2.3262 10.3068 2.39813C9.89892 2.47005 9.62655 2.85905 9.69847 3.26697L9.83419 4.03664C9.38676 4.15808 8.95432 4.31623 8.5404 4.50767L8.14945 3.83059C7.94233 3.47188 7.48363 3.34899 7.12492 3.55611C6.76621 3.76324 6.64332 4.22193 6.85044 4.58064L7.242 5.25878C6.86649 5.52432 6.5141 5.82051 6.18848 6.14371L5.58771 5.63961C5.27041 5.37336 4.79734 5.41474 4.53109 5.73205C4.26484 6.04936 4.30622 6.52242 4.62353 6.78867L5.22375 7.29232C4.96235 7.66793 4.73136 8.06634 4.53436 8.48396L3.79932 8.21643C3.41009 8.07476 2.97971 8.27545 2.83804 8.66469C2.69637 9.05392 2.89706 9.4843 3.28629 9.62597L4.02122 9.89346C3.90574 10.3321 3.82547 10.7851 3.78364 11.2492H3C2.58579 11.2492 2.25 11.585 2.25 11.9992C2.25 12.4134 2.58579 12.7492 3 12.7492H3.78363C3.82546 13.2133 3.90571 13.6663 4.02119 14.1051L3.28605 14.3726C2.89681 14.5143 2.69612 14.9447 2.83779 15.3339C2.97946 15.7232 3.40984 15.9238 3.79908 15.7822L4.53429 15.5146C4.73132 15.9323 4.96237 16.3308 5.22387 16.7065L4.62338 17.2104C4.30607 17.4767 4.26469 17.9497 4.53094 18.267C4.79719 18.5843 5.27026 18.6257 5.58756 18.3595L6.18867 17.8551C6.51434 18.1783 6.86681 18.4745 7.24247 18.7401L6.85038 19.4192C6.64328 19.778 6.76618 20.2366 7.1249 20.4438C7.48362 20.6509 7.94232 20.528 8.14942 20.1692L8.54088 19.4912C8.95466 19.6826 9.38698 19.8407 9.8344 19.9621L9.69847 20.733C9.62654 21.1409 9.89892 21.5299 10.3068 21.6018C10.7148 21.6738 11.1038 21.4014 11.1757 20.9935L11.3119 20.2209C11.5388 20.2397 11.7683 20.2492 12 20.2492C12.2317 20.2492 12.4611 20.2397 12.6879 20.221L12.8241 20.9935C12.8961 21.4014 13.2851 21.6738 13.693 21.6019C14.1009 21.53 14.3733 21.141 14.3014 20.733L14.1654 19.9621C14.6129 19.8407 15.0452 19.6826 15.4591 19.4912L15.8504 20.1691C16.0575 20.5278 16.5162 20.6507 16.8749 20.4436C17.2337 20.2365 17.3566 19.7778 17.1495 19.4191L16.7575 18.7402C17.1333 18.4745 17.4859 18.1781 17.8116 17.8548L18.4123 18.3589C18.7296 18.6251 19.2027 18.5837 19.469 18.2664C19.7352 17.9491 19.6938 17.476 19.3765 17.2098L18.7764 16.7062C19.0377 16.3306 19.2687 15.9323 19.4656 15.5148L20.2008 15.7823C20.59 15.924 21.0204 15.7233 21.162 15.3341C21.3037 14.9448 21.103 14.5145 20.7138 14.3728L19.9788 14.1053C20.0943 13.6665 20.1745 13.2134 20.2164 12.7492H21ZM18.3427 9.69059C18.3367 9.67396 18.3312 9.65726 18.3264 9.64051C18.0586 8.92246 17.672 8.26228 17.1906 7.68384C17.1838 7.6764 17.1772 7.6688 17.1707 7.66103C17.1643 7.65343 17.1581 7.64573 17.1521 7.63795C16.6618 7.05939 16.0759 6.5645 15.4186 6.17772C15.4039 6.17045 15.3893 6.16266 15.3749 6.15433C15.3601 6.14578 15.3457 6.13679 15.3317 6.12741C14.6874 5.76109 13.977 5.49773 13.2228 5.35972C13.206 5.3579 13.189 5.3555 13.172 5.35251C13.1556 5.34961 13.1394 5.34619 13.1234 5.34228C12.758 5.28108 12.3827 5.24923 12 5.24923C11.6176 5.24923 11.2428 5.28096 10.8781 5.34193C10.8615 5.34601 10.8448 5.34955 10.8278 5.35255C10.8102 5.35565 10.7927 5.35811 10.7752 5.35995C10.0043 5.50115 9.27971 5.77327 8.62475 6.15226C7.94684 6.54453 7.34372 7.05101 6.84158 7.6453C6.83754 7.65037 6.83342 7.65541 6.82922 7.66041C6.82709 7.66295 6.82495 7.66547 6.82279 7.66797C6.82054 7.67059 6.81827 7.67319 6.81598 7.67578C6.33124 8.25635 5.94235 8.91946 5.67335 9.64087C5.66855 9.65755 5.66314 9.67419 5.65712 9.69075C5.65109 9.70731 5.64454 9.72354 5.63749 9.73941C5.38654 10.446 5.25 11.2067 5.25 11.9992C5.25 12.7936 5.38721 13.5559 5.63924 14.2637C5.64553 14.2782 5.65141 14.2929 5.65687 14.3079C5.66232 14.3228 5.66726 14.3378 5.6717 14.3529C6.21924 15.8245 7.2654 17.0535 8.60482 17.8345C8.6086 17.8365 8.61238 17.8386 8.61615 17.8407C8.61907 17.8423 8.62199 17.844 8.6249 17.8457C8.63192 17.8497 8.63885 17.8539 8.64568 17.8581C9.30357 18.2356 10.0311 18.5054 10.8042 18.6436C10.8121 18.6448 10.8199 18.646 10.8278 18.6474C10.8351 18.6487 10.8424 18.6501 10.8496 18.6516C11.2235 18.7158 11.6078 18.7492 12 18.7492C12.3922 18.7492 12.7766 18.7158 13.1505 18.6516C13.1576 18.6501 13.1648 18.6487 13.172 18.6475C13.1798 18.6461 13.1876 18.6448 13.1953 18.6437C13.9668 18.5059 14.6928 18.237 15.3496 17.8608C15.3579 17.8556 15.3663 17.8505 15.3749 17.8455C15.3832 17.8408 15.3915 17.8362 15.3998 17.8318C16.0692 17.4407 16.6653 16.9377 17.1622 16.3485L17.1708 16.338L17.1801 16.3272C17.6672 15.7448 18.0579 15.0791 18.3277 14.3544C18.3323 14.3389 18.3374 14.3234 18.343 14.308C18.3486 14.2926 18.3547 14.2774 18.3612 14.2626C18.6129 13.5551 18.75 12.7932 18.75 11.9992C18.75 11.2067 18.6134 10.446 18.3625 9.73954C18.3554 9.72358 18.3488 9.70726 18.3427 9.69059Z" fill="#0F172A"/>
</svg>
