<svg width="24" height="24" viewBox="0 0 24 24" fill="none" xmlns="http://www.w3.org/2000/svg">
<path fill-rule="evenodd" clip-rule="evenodd" d="M9.40087 4.5034C10.5554 2.50229 13.4435 2.50229 14.598 4.5034L21.9523 17.2509C23.1062 19.2509 21.6627 21.7501 19.3538 21.7501H4.6451C2.33612 21.7501 0.892695 19.2509 2.04654 17.2509L9.40087 4.5034ZM11.9996 9.75C12.4138 9.75 12.7496 10.0858 12.7496 10.5V14.25C12.7496 14.6642 12.4138 15 11.9996 15C11.5854 15 11.2496 14.6642 11.2496 14.25V10.5C11.2496 10.0858 11.5854 9.75 11.9996 9.75ZM11.9996 18C12.4138 18 12.7496 17.6642 12.7496 17.25C12.7496 16.8358 12.4138 16.5 11.9996 16.5C11.5854 16.5 11.2496 16.8358 11.2496 17.25C11.2496 17.6642 11.5854 18 11.9996 18Z" fill="#0F172A"/>
</svg>
