<svg width="24" height="24" viewBox="0 0 24 24" fill="none" xmlns="http://www.w3.org/2000/svg">
<path fill-rule="evenodd" clip-rule="evenodd" d="M11.9996 3.75C10.6228 3.75 9.3443 4.16143 8.27767 4.86788C7.93233 5.09661 7.46696 5.00207 7.23824 4.65674C7.00951 4.3114 7.10405 3.84603 7.44938 3.61731C8.75404 2.7532 10.3192 2.25 11.9996 2.25C16.556 2.25 20.2496 5.94365 20.2496 10.5C20.2496 13.5153 19.6755 16.3983 18.6295 19.0442C18.4772 19.4294 18.0415 19.6182 17.6563 19.466C17.2711 19.3137 17.0823 18.8779 17.2346 18.4927C18.2123 16.0196 18.7496 13.3235 18.7496 10.5C18.7496 6.77208 15.7275 3.75 11.9996 3.75ZM6.15635 5.73863C6.50168 5.96735 6.59622 6.43272 6.36749 6.77806C5.66104 7.84469 5.24961 9.12316 5.24961 10.5C5.24961 12.1132 4.78616 13.6204 3.98422 14.893C3.76339 15.2434 3.30028 15.3485 2.94985 15.1276C2.59941 14.9068 2.49435 14.4437 2.71519 14.0933C3.37055 13.0533 3.74961 11.8222 3.74961 10.5C3.74961 8.81959 4.25281 7.25443 5.11692 5.94977C5.34564 5.60444 5.81101 5.5099 6.15635 5.73863ZM11.9996 7.5C10.3428 7.5 8.99961 8.84315 8.99961 10.5C8.99961 13.5997 7.82364 16.4266 5.89425 18.5556C5.6161 18.8626 5.1418 18.8859 4.83487 18.6077C4.52794 18.3296 4.5046 17.8553 4.78275 17.5484C6.47181 15.6845 7.49961 13.2132 7.49961 10.5C7.49961 8.01472 9.51433 6 11.9996 6C14.4849 6 16.4996 8.01472 16.4996 10.5C16.4996 11.0472 16.4774 11.5897 16.433 12.1264C16.3989 12.5392 16.0366 12.8462 15.6238 12.8121C15.211 12.778 14.904 12.4157 14.9381 12.0029C14.979 11.5078 14.9996 11.0066 14.9996 10.5C14.9996 8.84315 13.6565 7.5 11.9996 7.5ZM11.9999 9.75C12.4141 9.75 12.7499 10.0858 12.7499 10.5C12.7499 14.4082 11.3255 17.9855 8.96848 20.7384C8.69908 21.053 8.22563 21.0897 7.91099 20.8203C7.59635 20.5509 7.55967 20.0775 7.82907 19.7628C9.96221 17.2715 11.2499 14.0371 11.2499 10.5C11.2499 10.0858 11.5857 9.75 11.9999 9.75ZM15.2383 14.9331C15.6367 15.0467 15.8674 15.4617 15.7538 15.8601C15.1839 17.8576 14.3037 19.7239 13.169 21.4035C12.9371 21.7467 12.4709 21.837 12.1276 21.6051C11.7844 21.3732 11.6942 20.907 11.926 20.5637C12.9736 19.0132 13.7857 17.291 14.3114 15.4485C14.425 15.0502 14.84 14.8194 15.2383 14.9331Z" fill="#0F172A"/>
</svg>
