<svg width="24" height="24" viewBox="0 0 24 24" fill="none" xmlns="http://www.w3.org/2000/svg">
<path d="M19.0065 3.70484C19.3958 3.56328 19.5966 3.13296 19.455 2.74368C19.3135 2.35441 18.8832 2.15359 18.4939 2.29515L6.00037 6.83825V2.99999C6.00037 2.58578 5.66458 2.24999 5.25037 2.24999H3.75037C3.33615 2.24999 3.00037 2.58578 3.00037 2.99999V7.92916L1.9939 8.29515C1.60462 8.4367 1.4038 8.86702 1.54536 9.2563C1.68691 9.64557 2.11724 9.84639 2.50651 9.70484L19.0065 3.70484Z" fill="#0F172A"/>
<path fill-rule="evenodd" clip-rule="evenodd" d="M3.01932 11.1145L18.0004 5.66687V9.08837L22.0065 10.5451C22.3958 10.6867 22.5966 11.117 22.455 11.5063C22.3135 11.8956 21.8832 12.0964 21.4939 11.9548L21.0002 11.7753V20.25H21.7504C22.1646 20.25 22.5004 20.5858 22.5004 21C22.5004 21.4142 22.1646 21.75 21.7504 21.75H2.25037C1.83615 21.75 1.50037 21.4142 1.50037 21C1.50037 20.5858 1.83615 20.25 2.25037 20.25H3.00037V11.1213L3.01932 11.1145ZM18.0004 20.25V10.6845L19.5002 11.2299V20.25H18.0004ZM9.00037 14.25C8.58615 14.25 8.25037 14.5858 8.25037 15V19.5C8.25037 19.9142 8.58615 20.25 9.00037 20.25H12.0004C12.4146 20.25 12.7504 19.9142 12.7504 19.5V15C12.7504 14.5858 12.4146 14.25 12.0004 14.25H9.00037Z" fill="#0F172A"/>
</svg>
