<svg width="24" height="24" viewBox="0 0 24 24" fill="none" xmlns="http://www.w3.org/2000/svg">
<path fill-rule="evenodd" clip-rule="evenodd" d="M9.00016 2.25C9.41437 2.25 9.75016 2.58579 9.75016 3V4.50565C10.6345 4.519 11.5133 4.55589 12.3858 4.61576C13.2952 4.67816 14.1978 4.7655 15.093 4.87713C15.504 4.92838 15.7956 5.30314 15.7444 5.71417C15.6931 6.1252 15.3184 6.41685 14.9074 6.3656C14.2478 6.28336 13.5841 6.21471 12.9163 6.15993C12.3256 8.46971 11.3062 10.6074 9.9481 12.4834C10.2649 12.8666 10.598 13.236 10.9464 13.5905C11.2367 13.8859 11.2326 14.3607 10.9371 14.6511C10.6417 14.9414 10.1669 14.9373 9.87652 14.6419C9.57364 14.3337 9.28132 14.015 9.00015 13.6866C7.42902 15.522 5.50956 17.0501 3.34438 18.1686C2.97638 18.3587 2.52393 18.2145 2.33382 17.8465C2.14371 17.4785 2.28792 17.026 2.65593 16.8359C4.73772 15.7605 6.57228 14.2737 8.05223 12.4834C7.18614 11.2869 6.45772 9.984 5.89036 8.59774C5.73347 8.21439 5.91705 7.77643 6.3004 7.61954C6.68375 7.46265 7.1217 7.64623 7.2786 8.02957C7.74091 9.15919 8.31972 10.229 9.00015 11.2242C10.065 9.66674 10.8812 7.92604 11.3914 6.05944C10.5993 6.01997 9.80211 6 9.00016 6C6.99929 6 5.02782 6.12433 3.09296 6.3656C2.68193 6.41685 2.30718 6.1252 2.25592 5.71417C2.20467 5.30314 2.49632 4.92838 2.90735 4.87713C4.6613 4.65841 6.44395 4.5329 8.25016 4.50565V3C8.25016 2.58579 8.58594 2.25 9.00016 2.25ZM15.7502 9C16.0416 9 16.3066 9.16878 16.4298 9.43284L21.6798 20.6828C21.855 21.0582 21.6927 21.5045 21.3173 21.6796C20.942 21.8548 20.4957 21.6925 20.3205 21.3172L19.1225 18.75H12.3778L11.1798 21.3172C11.0046 21.6925 10.5583 21.8548 10.183 21.6796C9.80764 21.5045 9.64536 21.0582 9.82052 20.6828L15.0705 9.43284C15.1937 9.16878 15.4588 9 15.7502 9ZM13.0778 17.25H18.4225L15.7502 11.5235L13.0778 17.25Z" fill="#0F172A"/>
</svg>
