<svg width="24" height="24" viewBox="0 0 24 24" fill="none" xmlns="http://www.w3.org/2000/svg">
<path d="M3.47877 2.4043C3.21403 2.3274 2.92844 2.40193 2.73505 2.5984C2.54166 2.79487 2.47164 3.0816 2.55272 3.3451L4.98499 11.25H13.5007C13.9149 11.25 14.2507 11.5858 14.2507 12C14.2507 12.4142 13.9149 12.75 13.5007 12.75H4.985L2.55281 20.6546C2.47173 20.9181 2.54175 21.2049 2.73514 21.4013C2.92854 21.5978 3.21413 21.6723 3.47887 21.5954C10.1775 19.6494 16.3982 16.5814 21.924 12.6087C22.12 12.4678 22.2362 12.2412 22.2362 11.9998C22.2362 11.7583 22.12 11.5317 21.924 11.3908C16.3981 7.41817 10.1774 4.35021 3.47877 2.4043Z" fill="#0F172A"/>
</svg>
