<svg width="24" height="24" viewBox="0 0 24 24" fill="none" xmlns="http://www.w3.org/2000/svg">
<path fill-rule="evenodd" clip-rule="evenodd" d="M8.12907 9.15468C6.98262 10.5304 4.97931 10.9237 3.37563 9.99776C1.58203 8.96223 0.967497 6.66877 2.00303 4.87517C3.03856 3.08157 5.33203 2.46704 7.12563 3.50257C8.66392 4.39071 9.33492 6.20415 8.84148 7.83395L9.97787 8.49004C10.1645 8.59778 10.2957 8.78059 10.3382 8.99185C10.3806 9.20312 10.3301 9.42243 10.1996 9.59388L10.194 9.60123C9.94882 9.92327 9.49199 9.99312 9.16217 9.75848C9.12592 9.73269 9.08823 9.70846 9.04915 9.68589L8.12907 9.15468ZM3.30207 5.62517C3.92339 4.54901 5.29947 4.18029 6.37563 4.80161C7.39034 5.38745 7.77609 6.64433 7.29598 7.68809C7.27501 7.71507 7.25563 7.7438 7.23806 7.77423C7.21129 7.8206 7.19003 7.86863 7.17409 7.91758C6.54145 8.96092 5.18752 9.31181 4.12563 8.69873C3.04947 8.07741 2.68075 6.70133 3.30207 5.62517Z" fill="#0F172A"/>
<path fill-rule="evenodd" clip-rule="evenodd" d="M13.3491 8.2717C12.3752 8.56957 11.5408 9.14243 10.9222 9.88962C10.4546 10.4545 10.1097 11.1196 9.92057 11.842C9.81926 12.2289 9.76271 12.6318 9.75578 13.0439C9.74742 13.5408 9.47896 13.9969 9.04856 14.2454L8.08956 14.799C6.93704 13.4611 4.96105 13.0872 3.37563 14.0026C1.58203 15.0381 0.967497 17.3316 2.00303 19.1252C3.03856 20.9188 5.33203 21.5333 7.12563 20.4978C8.68246 19.5989 9.35097 17.7523 8.82314 16.1076L22.5514 8.18154C22.8141 8.02987 22.9596 7.73488 22.92 7.43412C22.8804 7.13337 22.6635 6.88609 22.3705 6.80758L21.5681 6.59256C20.6177 6.3379 19.6148 6.35545 18.6739 6.64322L13.3491 8.2717ZM4.12563 15.3016C3.04947 15.9229 2.68075 17.299 3.30207 18.3752C3.92339 19.4513 5.29947 19.82 6.37563 19.1987C7.45178 18.5774 7.8205 17.2013 7.19918 16.1252C6.57786 15.049 5.20178 14.6803 4.12563 15.3016ZM12.0007 12.75C12.4149 12.75 12.7507 12.4142 12.7507 12C12.7507 11.5858 12.4149 11.25 12.0007 11.25C11.5865 11.25 11.2507 11.5858 11.2507 12C11.2507 12.4142 11.5865 12.75 12.0007 12.75Z" fill="#0F172A"/>
<path d="M16.3725 12.615C16.6046 12.481 16.8905 12.481 17.1225 12.615L22.552 15.7497C22.8147 15.9014 22.9602 16.1964 22.9206 16.4971C22.881 16.7979 22.6641 17.0452 22.3711 17.1237L21.5687 17.3387C20.6182 17.5934 19.6154 17.5758 18.6745 17.288L13.5278 15.714C13.2423 15.6267 13.0357 15.3783 13.002 15.0817C12.9682 14.785 13.1136 14.4966 13.3721 14.3473L16.3725 12.615Z" fill="#0F172A"/>
</svg>
