<svg width="24" height="24" viewBox="0 0 24 24" fill="none" xmlns="http://www.w3.org/2000/svg">
<path fill-rule="evenodd" clip-rule="evenodd" d="M7.50049 6V6.75H5.51336C4.55381 6.75 3.74911 7.47444 3.64866 8.42872L2.3855 20.4287C2.26897 21.5358 3.13701 22.5 4.2502 22.5H19.7509C20.8641 22.5 21.7322 21.5358 21.6156 20.4287L20.3525 8.42872C20.252 7.47444 19.4473 6.75 18.4878 6.75H16.5005V6C16.5005 3.51472 14.4858 1.5 12.0005 1.5C9.51521 1.5 7.50049 3.51472 7.50049 6ZM12.0005 3C10.3436 3 9.00049 4.34315 9.00049 6V6.75H15.0005V6C15.0005 4.34315 13.6573 3 12.0005 3ZM9.00049 11.25C9.00049 12.9069 10.3436 14.25 12.0005 14.25C13.6573 14.25 15.0005 12.9069 15.0005 11.25V10.5C15.0005 10.0858 15.3363 9.75 15.7505 9.75C16.1647 9.75 16.5005 10.0858 16.5005 10.5V11.25C16.5005 13.7353 14.4858 15.75 12.0005 15.75C9.51521 15.75 7.50049 13.7353 7.50049 11.25V10.5C7.50049 10.0858 7.83628 9.75 8.25049 9.75C8.6647 9.75 9.00049 10.0858 9.00049 10.5V11.25Z" fill="#0F172A"/>
</svg>
