<svg width="24" height="24" viewBox="0 0 24 24" fill="none" xmlns="http://www.w3.org/2000/svg">
<path fill-rule="evenodd" clip-rule="evenodd" d="M2.46956 2.46967C2.76245 2.17678 3.23732 2.17678 3.53022 2.46967L11.9373 10.8767C11.958 10.8756 11.9789 10.875 11.9999 10.875C12.6212 10.875 13.1249 11.3787 13.1249 12C13.1249 12.021 13.1243 12.0419 13.1232 12.0626L14.5847 13.5242C15.2642 12.3737 15.1097 10.8671 14.1212 9.87868C13.8283 9.58579 13.8283 9.11091 14.1212 8.81802C14.4141 8.52513 14.889 8.52513 15.1819 8.81802C16.7585 10.3947 16.9206 12.8503 15.6682 14.6077L16.74 15.6795C18.5719 13.3257 18.4061 9.9209 16.2425 7.75736C15.9496 7.46447 15.9496 6.98959 16.2425 6.6967C16.5354 6.40381 17.0103 6.40381 17.3032 6.6967C20.0531 9.44665 20.2212 13.8008 17.8073 16.7468L18.8724 17.8118C21.8695 14.2758 21.7 8.97217 18.3638 5.63604C18.071 5.34315 18.071 4.86827 18.3638 4.57538C18.6567 4.28249 19.1316 4.28249 19.4245 4.57538C23.3467 8.49757 23.5173 14.7507 19.9362 18.8756L21.5302 20.4697C21.8231 20.7626 21.8231 21.2374 21.5302 21.5303C21.2373 21.8232 20.7624 21.8232 20.4696 21.5303L18.3643 19.4251L16.2425 17.3033L16.2419 17.3027L11.5365 12.5972C11.4895 12.5603 11.4471 12.5179 11.4102 12.4709L2.46956 3.53033C2.17666 3.23744 2.17666 2.76256 2.46956 2.46967ZM3.65842 6.89187C4.02716 7.08054 4.17314 7.53242 3.98447 7.90117C2.25339 11.2844 2.80522 15.5333 5.63592 18.364C5.92882 18.6569 5.92882 19.1317 5.63592 19.4246C5.34303 19.7175 4.86816 19.7175 4.57526 19.4246C1.27102 16.1204 0.630314 11.1635 2.64911 7.21792C2.83779 6.84917 3.28967 6.70319 3.65842 6.89187ZM5.84063 9.13355C6.23327 9.2655 6.4446 9.69075 6.31266 10.0834C5.60928 12.1765 6.09221 14.5776 7.75725 16.2426C8.05014 16.5355 8.05014 17.0104 7.75725 17.3033C7.46435 17.5962 6.98948 17.5962 6.69659 17.3033C4.61354 15.2203 4.01302 12.2177 4.8908 9.60558C5.02274 9.21294 5.448 9.00161 5.84063 9.13355ZM8.18188 11.7875C8.59198 11.7293 8.97164 12.0145 9.02987 12.4246C9.11803 13.0455 9.40031 13.6431 9.87857 14.1213C10.1715 14.4142 10.1715 14.8891 9.87857 15.182C9.58567 15.4749 9.1108 15.4749 8.81791 15.182C8.10205 14.4661 7.67704 13.5671 7.54477 12.6355C7.48653 12.2254 7.77178 11.8458 8.18188 11.7875Z" fill="#0F172A"/>
</svg>
