<svg width="24" height="24" viewBox="0 0 24 24" fill="none" xmlns="http://www.w3.org/2000/svg">
<path fill-rule="evenodd" clip-rule="evenodd" d="M1.37201 8.1434C7.22988 2.28553 16.7274 2.28553 22.5852 8.1434C22.8781 8.43628 22.8781 8.91114 22.5852 9.20404L22.0549 9.73441C21.9143 9.87507 21.7235 9.9541 21.5246 9.9541C21.3257 9.95411 21.1349 9.87509 20.9942 9.73443C16.015 4.75525 7.94219 4.75525 2.963 9.73443C2.82235 9.87509 2.63158 9.95411 2.43266 9.9541C2.23374 9.9541 2.04297 9.87507 1.90232 9.73441L1.37199 9.20404C1.07912 8.91114 1.07913 8.43628 1.37201 8.1434ZM4.55399 11.3254C8.6545 7.22493 15.3027 7.22493 19.4032 11.3254C19.6961 11.6183 19.6961 12.0932 19.4032 12.3861L18.8729 12.9164C18.7323 13.0571 18.5415 13.1361 18.3426 13.1361C18.1437 13.1361 17.9529 13.0571 17.8123 12.9164C14.5904 9.6946 9.36683 9.6946 6.14501 12.9164C5.85212 13.2093 5.37725 13.2093 5.08436 12.9164L4.554 12.3861C4.41335 12.2455 4.33433 12.0547 4.33432 11.8558C4.33432 11.6569 4.41334 11.4661 4.55399 11.3254ZM7.75806 14.5074C10.1012 12.1642 13.9002 12.1642 16.2433 14.5074C16.5362 14.8003 16.5362 15.2751 16.2433 15.568L15.713 16.0983C15.5724 16.239 15.3816 16.318 15.1827 16.318C14.9838 16.318 14.793 16.239 14.6524 16.0983C13.1879 14.6339 10.8135 14.6339 9.34905 16.0983C9.05616 16.3912 8.58128 16.3912 8.28839 16.0983L7.75806 15.568C7.46517 15.2751 7.46517 14.8003 7.75806 14.5074ZM10.94 17.6893C11.5258 17.1036 12.4756 17.1036 13.0614 17.6893C13.3543 17.9822 13.3543 18.4571 13.0614 18.75L12.531 19.2803C12.3904 19.421 12.1996 19.5 12.0007 19.5C11.8018 19.5 11.611 19.421 11.4704 19.2803L10.94 18.75C10.6471 18.4571 10.6471 17.9822 10.94 17.6893Z" fill="#0F172A"/>
</svg>
